<?xml version="1.0" standalone="no"?>
<!DOCTYPE svg PUBLIC "-//W3C//DTD SVG 20010904//EN"
 "http://www.w3.org/TR/2001/REC-SVG-20010904/DTD/svg10.dtd">
<svg version="1.0" xmlns="http://www.w3.org/2000/svg"
 width="364.000000pt" height="364.000000pt" viewBox="0 0 364.000000 364.000000"
 preserveAspectRatio="xMidYMid meet">
<metadata>
Created by potrace 1.11, written by Peter Selinger 2001-2013
</metadata>
<g transform="translate(0.000000,364.000000) scale(0.100000,-0.100000)"
fill="#000000" stroke="none">
<path d="M1784 2421 c-23 -22 -175 -188 -230 -251 -21 -25 -46 -52 -54 -60 -8
-8 -51 -55 -95 -105 -44 -49 -87 -97 -95 -105 -8 -8 -51 -55 -95 -105 -44 -49
-87 -97 -95 -105 -8 -8 -51 -55 -95 -105 -44 -49 -89 -99 -100 -110 -11 -12
-51 -56 -90 -99 -38 -44 -79 -88 -90 -100 -11 -12 -56 -62 -100 -111 -44 -49
-89 -99 -100 -111 -11 -11 -51 -56 -90 -99 -38 -43 -75 -83 -80 -89 -128 -135
-295 -328 -295 -340 0 -3 776 -6 1725 -6 1102 0 1725 3 1725 10 0 7 -45 65
-70 90 -3 3 -41 45 -85 95 -44 49 -89 99 -100 111 -22 23 -143 157 -172 190
-10 12 -53 60 -97 107 -43 48 -86 96 -96 107 -9 11 -57 63 -106 117 -96 105
-244 268 -389 427 -49 54 -110 122 -134 150 -24 28 -69 78 -100 112 -85 91
-210 230 -286 316 -37 42 -73 79 -80 82 -7 2 -21 -4 -31 -13z"/>
</g>
</svg>
